<?xml version="1.0" standalone="no"?><!DOCTYPE svg PUBLIC "-//W3C//DTD SVG 1.1//EN" "http://www.w3.org/Graphics/SVG/1.1/DTD/svg11.dtd"><svg t="1707833089609" class="icon" viewBox="0 0 1024 1024" version="1.1" xmlns="http://www.w3.org/2000/svg" p-id="1325" xmlns:xlink="http://www.w3.org/1999/xlink" width="200" height="200"><path d="M594.5856 653.1584m-179.0976 0a179.0976 179.0976 0 1 0 358.1952 0 179.0976 179.0976 0 1 0-358.1952 0Z" fill="#FFBE0A" p-id="1326"></path><path d="M513.8944 920.8832c-226.8672 0-411.4432-184.576-411.4432-411.4432s184.576-411.4432 411.4432-411.4432 411.4432 184.576 411.4432 411.4432-184.576 411.4432-411.4432 411.4432z m0-751.2064c-187.3408 0-339.7632 152.4224-339.7632 339.7632s152.4224 339.7632 339.7632 339.7632 339.7632-152.4224 339.7632-339.7632-152.4224-339.7632-339.7632-339.7632z" fill="#34332E" p-id="1327"></path><path d="M356.608 706.048c-9.3184 0-18.4832-3.6352-25.344-10.496a35.82976 35.82976 0 0 1-8.2432-37.888l85.7088-229.1712a35.7632 35.7632 0 0 1 20.3776-20.7872l233.984-92.416a35.81952 35.81952 0 0 1 38.2976 7.7824 35.86048 35.86048 0 0 1 8.3968 38.1952l-88.576 234.9568a35.59936 35.59936 0 0 1-20.9408 20.8896l-231.0656 86.6304c-4.096 1.5872-8.3456 2.304-12.5952 2.304z m113.7152-237.5168L417.792 609.024l142.1312-53.2992 54.3232-144.0256-143.9232 56.832z" fill="#34332E" p-id="1328"></path></svg>